<svg xmlns="http://www.w3.org/2000/svg" xmlns:xlink="http://www.w3.org/1999/xlink" width="500" zoomAndPan="magnify" viewBox="0 0 375 374.999991" height="500" preserveAspectRatio="xMidYMid meet" version="1.0"><path fill="#00c2cb" d="M 187.5 117.1875 C 148.753906 117.1875 117.1875 148.753906 117.1875 187.5 C 117.1875 226.246094 148.753906 257.8125 187.5 257.8125 C 226.246094 257.8125 257.8125 226.246094 257.8125 187.5 C 257.8125 148.753906 226.246094 117.1875 187.5 117.1875 Z M 367.96875 176.148438 L 298.609375 141.503906 L 323.144531 67.96875 C 326.441406 58.007812 316.992188 48.558594 307.105469 51.929688 L 233.570312 76.464844 L 198.851562 7.03125 C 194.164062 -2.34375 180.835938 -2.34375 176.148438 7.03125 L 141.503906 76.390625 L 67.894531 51.855469 C 57.933594 48.558594 48.484375 58.007812 51.855469 67.894531 L 76.390625 141.429688 L 7.03125 176.148438 C -2.34375 180.835938 -2.34375 194.164062 7.03125 198.851562 L 76.390625 233.496094 L 51.855469 307.105469 C 48.558594 317.066406 58.007812 326.511719 67.894531 323.144531 L 141.429688 298.609375 L 176.074219 367.96875 C 180.761719 377.34375 194.089844 377.34375 198.78125 367.96875 L 233.421875 298.609375 L 306.957031 323.144531 C 316.917969 326.441406 326.367188 316.992188 322.996094 307.105469 L 298.460938 233.570312 L 367.820312 198.925781 C 377.34375 194.164062 377.34375 180.835938 367.96875 176.148438 Z M 253.785156 253.785156 C 217.234375 290.332031 157.761719 290.332031 121.214844 253.785156 C 84.667969 217.234375 84.667969 157.761719 121.214844 121.214844 C 157.761719 84.667969 217.234375 84.667969 253.785156 121.214844 C 290.332031 157.761719 290.332031 217.234375 253.785156 253.785156 Z M 253.785156 253.785156 " fill-opacity="1" fill-rule="nonzero"/></svg>